<?xml version="1.0" encoding="UTF-8"?>
<svg id="Layer_2" data-name="Layer 2" xmlns="http://www.w3.org/2000/svg" viewBox="0 0 295.18 60">
  <defs>
    <style>
      .cls-1 {
        fill: #1a1a1a;
      }

      .cls-2 {
        fill: #f8d166;
        fill-rule: evenodd;
      }
    </style>
  </defs>
  <g id="navbar">
    <g>
      <g>
        <polygon class="cls-2" points="15.14 51.81 32.89 5.29 20.73 5.29 3.1 51.81 15.14 51.81"/>
        <path class="cls-2" d="M29.87,23.33c-3.79,3.55,1.09,9.75,3.65,12.08,2.72,2.47,5.43,4.95,8.15,7.42,2.03,1.84,3.29,3.65,2.13,6.45-1.92,4.62-7.23,5.37-12.01,5.37H2.03l-2.03,5.35h32.77c7.12,0,15.78-.75,21.23-5.69,2.08-1.89,3.31-4.27,3.57-6.76.48-4.69-3.35-8.38-6.86-10.84-3.2-2.53-6.39-5.06-9.58-7.59h12.9l5.13-5.78h-29.28Z"/>
        <path class="cls-2" d="M50.63,10.72c1.16,2.8-.1,4.6-2.13,6.45-1.22,1.11-2.43,2.21-3.65,3.32h16.07c2.17-2.18,3.79-4.87,3.47-8.03-.26-2.49-1.49-4.88-3.57-6.76C55.38.75,46.72,0,39.59,0h-16.85l-2.02,5.35h17.89c4.79,0,10.09.75,12.01,5.37Z"/>
      </g>
      <g>
        <path class="cls-1" d="M121.82,21.89c.78-6.17-6.16-7.89-11.02-7.89h-19.84l-1.93,5.08-6.56,17.3-3.7,9.77h10.54l4.96-12.66h8.75c4.47,0,8.79-1.08,12.69-3.5,2.92-1.81,5.69-4.75,6.11-8.1ZM110.85,23.86c-.27.94-.88,1.75-1.68,2.42-2.11,1.75-4.59,2.43-7.19,2.43h-5.87l3.61-9.63h6.82c2.63.07,4.96,1.67,4.3,4.78Z"/>
        <path class="cls-1" d="M201.48,18.47c-2.69-3.41-6.73-4.62-11.14-4.62-7.56,0-15.12,0-22.67,0l-3.39,9.17-6.87,18.59h-2.37l-3.66-27.6h-13.72l-9.93,11.97-13.03,15.71-3.71,4.47h26.31l1.75-4.55h-15.02l15.11-18.12h2.73s3.16,22.67,3.16,22.67h30.92c6.02-.27,10.33-.54,15.74-4.12,4.06-2.69,7.92-6.37,9.61-10.71.58-1.48,1.12-3.2,1.3-4.01.74-3.28.54-6.01-1.1-8.85ZM191.53,30.9c-3.27,6.78-10.13,10.79-17.54,10.79h-5.78l8.7-23.05h6.05c3.82,0,7.62,1.18,9.05,4.92.86,2.26.6,5.1-.48,7.35Z"/>
        <path class="cls-1" d="M294.58,41.6h0l-3.66-27.6h-13.72l-22.97,27.68h-2.27l7.45-20.25c.58-1.57,1.23-3.19,1.16-4.85-.33-2.32-3.98-2.73-5.91-2.73h-41.46l-12.51,32.31h11.38l10.54-27.83h8.19l-10.31,27.83h10.77l10.46-27.83h8.42c-3.44,9.28-6.87,18.56-10.31,27.83h37.01l1.75-4.55h-15.02l15.11-18.12h2.73s3.16,22.67,3.16,22.67h10.63l-.6-4.55Z"/>
      </g>
    </g>
  </g>
</svg>